<svg width="42" height="42" viewBox="0 0 42 42">
  <g fill="none" fill-rule="evenodd" transform="translate(1 1)">
    <polygon stroke="#000" stroke-opacity=".008" stroke-width=".5" points="0 0 40 0 40 40 0 40"/>
    <path fill="#000" d="M35 12L5 12C4.44799994 12 4 11.552 4 11 4 10.4479999 4.44799994 10 5 10L35 10C35.5520018 10 36 10.4479999 36 11 36 11.552 35.551998 12 35 12zM35 22L5 22C4.44799994 22 4 21.552 4 21 4 20.4479998 4.44799994 20 5 20L35 20C35.5520018 20 36 20.4479998 36 21 36 21.552 35.551998 22 35 22zM35 32L5 32C4.44799994 32 4 31.552 4 31 4 30.4479998 4.44799994 30 5 30L35 30C35.5520018 30 36 30.4479998 36 31 36 31.552 35.551998 32 35 32z"/>
  </g>
</svg>
